<?xml version="1.0" encoding="utf-8" standalone="no"?>
<!DOCTYPE svg PUBLIC "-//W3C//DTD SVG 1.1//EN"
  "http://www.w3.org/Graphics/SVG/1.1/DTD/svg11.dtd">
<svg xmlns:xlink="http://www.w3.org/1999/xlink" width="280.9pt" height="376.36pt" viewBox="0 0 280.9 376.36" xmlns="http://www.w3.org/2000/svg" version="1.1">
 <metadata>
  <rdf:RDF xmlns:dc="http://purl.org/dc/elements/1.1/" xmlns:cc="http://creativecommons.org/ns#" xmlns:rdf="http://www.w3.org/1999/02/22-rdf-syntax-ns#">
   <cc:Work>
    <dc:type rdf:resource="http://purl.org/dc/dcmitype/StillImage"/>
    <dc:date>2026-06-20T15:33:13.441772</dc:date>
    <dc:format>image/svg+xml</dc:format>
    <dc:creator>
     <cc:Agent>
      <dc:title>Matplotlib v3.10.9, https://matplotlib.org/</dc:title>
     </cc:Agent>
    </dc:creator>
   </cc:Work>
  </rdf:RDF>
 </metadata>
 <defs>
  <style type="text/css">*{stroke-linejoin: round; stroke-linecap: butt}</style>
 </defs>
 <g id="figure_1">
  <g id="patch_1">
   <path d="M 0 376.36 
L 280.9 376.36 
L 280.9 0 
L 0 0 
z
" style="fill: #ffffff"/>
  </g>
  <g id="axes_1">
   <g id="patch_2">
    <path d="M 159.22 209.68 
C 163.993656 209.68 168.572438 207.783406 171.947922 204.407922 
C 175.323406 201.032438 177.22 196.453656 177.22 191.68 
C 177.22 186.906344 175.323406 182.327562 171.947922 178.952078 
C 168.572438 175.576594 163.993656 173.68 159.22 173.68 
C 154.446344 173.68 149.867562 175.576594 146.492078 178.952078 
C 143.116594 182.327562 141.22 186.906344 141.22 191.68 
C 141.22 196.453656 143.116594 201.032438 146.492078 204.407922 
C 149.867562 207.783406 154.446344 209.68 159.22 209.68 
L 159.22 209.68 
z
" clip-path="url(#pfb084dfe55)" style="fill: none; stroke: #000000; stroke-width: 2; stroke-linejoin: miter"/>
   </g>
   <g id="patch_3">
    <path d="M 267.22 92.68 
C 268.413016 92.68 269.55839 92.205571 270.401981 91.361981 
C 271.245571 90.51839 271.72 89.373016 271.72 88.18 
C 271.72 86.986984 271.245571 85.84161 270.401981 84.998019 
C 269.55839 84.154429 268.413016 83.68 267.22 83.68 
" clip-path="url(#pfb084dfe55)" style="fill: none; stroke: #000000; stroke-width: 2; stroke-linejoin: miter"/>
   </g>
   <g id="patch_4">
    <path d="M 267.22 101.68 
C 268.413016 101.68 269.55839 101.205571 270.401981 100.361981 
C 271.245571 99.51839 271.72 98.373016 271.72 97.18 
C 271.72 95.986984 271.245571 94.84161 270.401981 93.998019 
C 269.55839 93.154429 268.413016 92.68 267.22 92.68 
" clip-path="url(#pfb084dfe55)" style="fill: none; stroke: #000000; stroke-width: 2; stroke-linejoin: miter"/>
   </g>
   <g id="patch_5">
    <path d="M 267.22 110.68 
C 268.413016 110.68 269.55839 110.205571 270.401981 109.361981 
C 271.245571 108.51839 271.72 107.373016 271.72 106.18 
C 271.72 104.986984 271.245571 103.84161 270.401981 102.998019 
C 269.55839 102.154429 268.413016 101.68 267.22 101.68 
" clip-path="url(#pfb084dfe55)" style="fill: none; stroke: #000000; stroke-width: 2; stroke-linejoin: miter"/>
   </g>
   <g id="patch_6">
    <path d="M 267.22 119.68 
C 268.413016 119.68 269.55839 119.205571 270.401981 118.361981 
C 271.245571 117.51839 271.72 116.373016 271.72 115.18 
C 271.72 113.986984 271.245571 112.84161 270.401981 111.998019 
C 269.55839 111.154429 268.413016 110.68 267.22 110.68 
" clip-path="url(#pfb084dfe55)" style="fill: none; stroke: #000000; stroke-width: 2; stroke-linejoin: miter"/>
   </g>
   <g id="line2d_1">
    <path d="M 159.22 299.68 
L 159.22 263.68 
L 159.22 227.68 
" clip-path="url(#pfb084dfe55)" style="fill: none; stroke: #000000; stroke-width: 2; stroke-linecap: round"/>
   </g>
   <g id="line2d_2">
    <path d="M 159.22 227.68 
L 159.22 209.68 
L 159.22 209.68 
M 159.22 173.68 
L 159.22 173.68 
L 159.22 155.68 
" clip-path="url(#pfb084dfe55)" style="fill: none; stroke: #000000; stroke-width: 2; stroke-linecap: round"/>
   </g>
   <g id="line2d_3">
    <path d="M 168.22 191.68 
L 167.47 189.816503 
L 166.72 188.08 
L 165.97 186.588831 
L 165.22 185.444617 
L 164.47 184.725334 
L 163.72 184.48 
L 162.97 184.725334 
L 162.22 185.444617 
L 161.47 186.588831 
L 160.72 188.08 
L 159.97 189.816503 
L 159.22 191.68 
L 158.47 193.543497 
L 157.72 195.28 
L 156.97 196.771169 
L 156.22 197.915383 
L 155.47 198.634666 
L 154.72 198.88 
L 153.97 198.634666 
L 153.22 197.915383 
L 152.47 196.771169 
L 151.72 195.28 
L 150.97 193.543497 
L 150.22 191.68 
" clip-path="url(#pfb084dfe55)" style="fill: none; stroke: #000000; stroke-width: 2; stroke-linecap: round"/>
   </g>
   <g id="line2d_4">
    <path d="M 159.22 155.68 
L 159.22 101.68 
L 159.22 47.68 
" clip-path="url(#pfb084dfe55)" style="fill: none; stroke: #000000; stroke-width: 2; stroke-linecap: round"/>
   </g>
   <g id="line2d_5">
    <path d="M 159.22 47.68 
L 213.22 47.68 
L 267.22 47.68 
" clip-path="url(#pfb084dfe55)" style="fill: none; stroke: #000000; stroke-width: 2; stroke-linecap: round"/>
   </g>
   <g id="line2d_6">
    <path d="M 267.22 47.68 
L 267.22 83.68 
M 267.22 119.68 
L 267.22 155.68 
" clip-path="url(#pfb084dfe55)" style="fill: none; stroke: #000000; stroke-width: 2; stroke-linecap: round"/>
   </g>
   <g id="line2d_7">
    <path d="M 267.22 155.68 
L 267.22 191.68 
L 276.22 194.68 
L 258.22 200.68 
L 276.22 206.68 
L 258.22 212.68 
L 276.22 218.68 
L 258.22 224.68 
L 267.22 227.68 
L 267.22 263.68 
" clip-path="url(#pfb084dfe55)" style="fill: none; stroke: #000000; stroke-width: 2; stroke-linecap: round"/>
   </g>
   <g id="line2d_8">
    <path d="M 267.22 263.68 
L 267.22 314.44 
M 276.22 314.44 
L 258.22 314.44 
M 276.22 320.92 
L 258.22 320.92 
M 267.22 320.92 
L 267.22 371.68 
" clip-path="url(#pfb084dfe55)" style="fill: none; stroke: #000000; stroke-width: 2; stroke-linecap: round"/>
   </g>
   <g id="line2d_9">
    <path d="M 267.22 371.68 
L 213.22 371.68 
L 159.22 371.68 
" clip-path="url(#pfb084dfe55)" style="fill: none; stroke: #000000; stroke-width: 2; stroke-linecap: round"/>
   </g>
   <g id="line2d_10">
    <path d="M 159.22 371.68 
L 159.22 317.68 
L 159.22 263.68 
" clip-path="url(#pfb084dfe55)" style="fill: none; stroke: #000000; stroke-width: 2; stroke-linecap: round"/>
   </g>
   <g id="line2d_11">
    <path d="M 213.22 31.48 
L 227.62 31.48 
L 233.02 31.48 
" clip-path="url(#pfb084dfe55)" style="fill: none; stroke: #000000; stroke-width: 2; stroke-linecap: round"/>
   </g>
   <g id="patch_7">
    <path d="M 233.02 28.78 
L 242.02 31.48 
L 233.02 34.18 
z
" clip-path="url(#pfb084dfe55)"/>
   </g>
   <g id="text_1">
    <!-- L -->
    <g transform="translate(255.819375 105.543125) scale(0.14 -0.14)">
     <defs>
      <path id="DejaVuSans-4c" d="M 628 4666 
L 1259 4666 
L 1259 531 
L 3531 531 
L 3531 0 
L 628 0 
L 628 4666 
z
" transform="scale(0.015625)"/>
     </defs>
     <use xlink:href="#DejaVuSans-4c"/>
    </g>
   </g>
   <g id="text_2">
    <!-- R -->
    <g transform="translate(244.892188 213.543125) scale(0.14 -0.14)">
     <defs>
      <path id="DejaVuSans-52" d="M 2841 2188 
Q 3044 2119 3236 1894 
Q 3428 1669 3622 1275 
L 4263 0 
L 3584 0 
L 2988 1197 
Q 2756 1666 2539 1819 
Q 2322 1972 1947 1972 
L 1259 1972 
L 1259 0 
L 628 0 
L 628 4666 
L 2053 4666 
Q 2853 4666 3247 4331 
Q 3641 3997 3641 3322 
Q 3641 2881 3436 2590 
Q 3231 2300 2841 2188 
z
M 1259 4147 
L 1259 2491 
L 2053 2491 
Q 2509 2491 2742 2702 
Q 2975 2913 2975 3322 
Q 2975 3731 2742 3939 
Q 2509 4147 2053 4147 
L 1259 4147 
z
" transform="scale(0.015625)"/>
     </defs>
     <use xlink:href="#DejaVuSans-52"/>
    </g>
   </g>
   <g id="text_3">
    <!-- C -->
    <g transform="translate(244.844062 321.543125) scale(0.14 -0.14)">
     <defs>
      <path id="DejaVuSans-43" d="M 4122 4306 
L 4122 3641 
Q 3803 3938 3442 4084 
Q 3081 4231 2675 4231 
Q 1875 4231 1450 3742 
Q 1025 3253 1025 2328 
Q 1025 1406 1450 917 
Q 1875 428 2675 428 
Q 3081 428 3442 575 
Q 3803 722 4122 1019 
L 4122 359 
Q 3791 134 3420 21 
Q 3050 -91 2638 -91 
Q 1578 -91 968 557 
Q 359 1206 359 2328 
Q 359 3453 968 4101 
Q 1578 4750 2638 4750 
Q 3056 4750 3426 4639 
Q 3797 4528 4122 4306 
z
" transform="scale(0.015625)"/>
     </defs>
     <use xlink:href="#DejaVuSans-43"/>
    </g>
   </g>
   <g id="text_4">
    <!-- $i(t)$ -->
    <g transform="translate(221 15.543125) scale(0.14 -0.14)">
     <defs>
      <path id="DejaVuSans-Oblique-69" d="M 1172 4863 
L 1747 4863 
L 1606 4134 
L 1031 4134 
L 1172 4863 
z
M 909 3500 
L 1484 3500 
L 800 0 
L 225 0 
L 909 3500 
z
" transform="scale(0.015625)"/>
      <path id="DejaVuSans-28" d="M 1984 4856 
Q 1566 4138 1362 3434 
Q 1159 2731 1159 2009 
Q 1159 1288 1364 580 
Q 1569 -128 1984 -844 
L 1484 -844 
Q 1016 -109 783 600 
Q 550 1309 550 2009 
Q 550 2706 781 3412 
Q 1013 4119 1484 4856 
L 1984 4856 
z
" transform="scale(0.015625)"/>
      <path id="DejaVuSans-Oblique-74" d="M 2706 3500 
L 2619 3053 
L 1472 3053 
L 1100 1153 
Q 1081 1047 1072 975 
Q 1063 903 1063 863 
Q 1063 663 1183 572 
Q 1303 481 1569 481 
L 2150 481 
L 2053 0 
L 1503 0 
Q 991 0 739 200 
Q 488 400 488 806 
Q 488 878 497 964 
Q 506 1050 525 1153 
L 897 3053 
L 409 3053 
L 500 3500 
L 978 3500 
L 1172 4494 
L 1747 4494 
L 1556 3500 
L 2706 3500 
z
" transform="scale(0.015625)"/>
      <path id="DejaVuSans-29" d="M 513 4856 
L 1013 4856 
Q 1481 4119 1714 3412 
Q 1947 2706 1947 2009 
Q 1947 1309 1714 600 
Q 1481 -109 1013 -844 
L 513 -844 
Q 928 -128 1133 580 
Q 1338 1288 1338 2009 
Q 1338 2731 1133 3434 
Q 928 4138 513 4856 
z
" transform="scale(0.015625)"/>
     </defs>
     <use xlink:href="#DejaVuSans-Oblique-69" transform="translate(0 0.015625)"/>
     <use xlink:href="#DejaVuSans-28" transform="translate(27.783203 0.015625)"/>
     <use xlink:href="#DejaVuSans-Oblique-74" transform="translate(66.796875 0.015625)"/>
     <use xlink:href="#DejaVuSans-29" transform="translate(106.005859 0.015625)"/>
    </g>
   </g>
   <g id="text_5">
    <!-- $v(t)=\sqrt{2}V\cos(\omega t)$ -->
    <g transform="translate(0 193.988438) scale(0.14 -0.14)">
     <defs>
      <path id="DejaVuSans-Oblique-76" d="M 459 3500 
L 1069 3500 
L 1581 525 
L 3256 3500 
L 3866 3500 
L 1875 0 
L 1100 0 
L 459 3500 
z
" transform="scale(0.015625)"/>
      <path id="DejaVuSans-3d" d="M 678 2906 
L 4684 2906 
L 4684 2381 
L 678 2381 
L 678 2906 
z
M 678 1631 
L 4684 1631 
L 4684 1100 
L 678 1100 
L 678 1631 
z
" transform="scale(0.015625)"/>
      <path id="STIXSizeOneSym-Regular-221a" d="M 6970 9933 
L 3373 -1888 
L 3104 -1888 
L 1626 2918 
Q 1555 3149 1465 3251 
Q 1376 3354 1229 3354 
Q 1011 3354 794 3181 
L 717 3309 
L 1766 4115 
L 1926 4115 
L 3379 -602 
L 3405 -602 
L 6605 9933 
L 6970 9933 
z
" transform="scale(0.015625)"/>
      <path id="DejaVuSans-32" d="M 1228 531 
L 3431 531 
L 3431 0 
L 469 0 
L 469 531 
Q 828 903 1448 1529 
Q 2069 2156 2228 2338 
Q 2531 2678 2651 2914 
Q 2772 3150 2772 3378 
Q 2772 3750 2511 3984 
Q 2250 4219 1831 4219 
Q 1534 4219 1204 4116 
Q 875 4013 500 3803 
L 500 4441 
Q 881 4594 1212 4672 
Q 1544 4750 1819 4750 
Q 2544 4750 2975 4387 
Q 3406 4025 3406 3419 
Q 3406 3131 3298 2873 
Q 3191 2616 2906 2266 
Q 2828 2175 2409 1742 
Q 1991 1309 1228 531 
z
" transform="scale(0.015625)"/>
      <path id="DejaVuSans-Oblique-56" d="M 1319 0 
L 500 4666 
L 1119 4666 
L 1797 653 
L 4063 4666 
L 4750 4666 
L 2053 0 
L 1319 0 
z
" transform="scale(0.015625)"/>
      <path id="DejaVuSans-63" d="M 3122 3366 
L 3122 2828 
Q 2878 2963 2633 3030 
Q 2388 3097 2138 3097 
Q 1578 3097 1268 2742 
Q 959 2388 959 1747 
Q 959 1106 1268 751 
Q 1578 397 2138 397 
Q 2388 397 2633 464 
Q 2878 531 3122 666 
L 3122 134 
Q 2881 22 2623 -34 
Q 2366 -91 2075 -91 
Q 1284 -91 818 406 
Q 353 903 353 1747 
Q 353 2603 823 3093 
Q 1294 3584 2113 3584 
Q 2378 3584 2631 3529 
Q 2884 3475 3122 3366 
z
" transform="scale(0.015625)"/>
      <path id="DejaVuSans-6f" d="M 1959 3097 
Q 1497 3097 1228 2736 
Q 959 2375 959 1747 
Q 959 1119 1226 758 
Q 1494 397 1959 397 
Q 2419 397 2687 759 
Q 2956 1122 2956 1747 
Q 2956 2369 2687 2733 
Q 2419 3097 1959 3097 
z
M 1959 3584 
Q 2709 3584 3137 3096 
Q 3566 2609 3566 1747 
Q 3566 888 3137 398 
Q 2709 -91 1959 -91 
Q 1206 -91 779 398 
Q 353 888 353 1747 
Q 353 2609 779 3096 
Q 1206 3584 1959 3584 
z
" transform="scale(0.015625)"/>
      <path id="DejaVuSans-73" d="M 2834 3397 
L 2834 2853 
Q 2591 2978 2328 3040 
Q 2066 3103 1784 3103 
Q 1356 3103 1142 2972 
Q 928 2841 928 2578 
Q 928 2378 1081 2264 
Q 1234 2150 1697 2047 
L 1894 2003 
Q 2506 1872 2764 1633 
Q 3022 1394 3022 966 
Q 3022 478 2636 193 
Q 2250 -91 1575 -91 
Q 1294 -91 989 -36 
Q 684 19 347 128 
L 347 722 
Q 666 556 975 473 
Q 1284 391 1588 391 
Q 1994 391 2212 530 
Q 2431 669 2431 922 
Q 2431 1156 2273 1281 
Q 2116 1406 1581 1522 
L 1381 1569 
Q 847 1681 609 1914 
Q 372 2147 372 2553 
Q 372 3047 722 3315 
Q 1072 3584 1716 3584 
Q 2034 3584 2315 3537 
Q 2597 3491 2834 3397 
z
" transform="scale(0.015625)"/>
      <path id="DejaVuSans-Oblique-3c9" d="M 1369 -91 
Q 72 -91 434 1766 
Q 575 2500 1256 3500 
L 1875 3500 
Q 1231 2500 1088 1750 
Q 819 397 1519 397 
Q 2166 397 2478 2078 
L 3009 2078 
Q 2669 388 3316 397 
Q 4013 403 4275 1750 
Q 4419 2500 4169 3500 
L 4788 3500 
Q 5075 2500 4934 1766 
Q 4578 -94 3278 -91 
Q 2428 -88 2503 844 
Q 2194 -91 1369 -91 
z
" transform="scale(0.015625)"/>
     </defs>
     <use xlink:href="#DejaVuSans-Oblique-76" transform="translate(0 0.71875)"/>
     <use xlink:href="#DejaVuSans-28" transform="translate(59.179688 0.71875)"/>
     <use xlink:href="#DejaVuSans-Oblique-74" transform="translate(98.193359 0.71875)"/>
     <use xlink:href="#DejaVuSans-29" transform="translate(137.402344 0.71875)"/>
     <use xlink:href="#DejaVuSans-3d" transform="translate(195.898438 0.71875)"/>
     <use xlink:href="#STIXSizeOneSym-Regular-221a" transform="translate(299.169922 17.53125) scale(0.571018)"/>
     <use xlink:href="#DejaVuSans-32" transform="translate(372.051041 0.53125)"/>
     <use xlink:href="#DejaVuSans-Oblique-56" transform="translate(448.174088 0.71875)"/>
     <use xlink:href="#DejaVuSans-63" transform="translate(516.582291 0.71875)"/>
     <use xlink:href="#DejaVuSans-6f" transform="translate(571.562759 0.71875)"/>
     <use xlink:href="#DejaVuSans-73" transform="translate(632.7444 0.71875)"/>
     <use xlink:href="#DejaVuSans-28" transform="translate(684.844009 0.71875)"/>
     <use xlink:href="#DejaVuSans-Oblique-3c9" transform="translate(723.857681 0.71875)"/>
     <use xlink:href="#DejaVuSans-Oblique-74" transform="translate(807.597916 0.71875)"/>
     <use xlink:href="#DejaVuSans-29" transform="translate(846.8069 0.71875)"/>
     <path d="M 359.551041 99.5 
L 359.551041 105.75 
L 448.174088 105.75 
L 448.174088 99.5 
L 359.551041 99.5 
z
"/>
    </g>
   </g>
   <g id="text_6">
    <!-- + -->
    <g transform="translate(142.554219 164.943125) scale(0.14 -0.14)">
     <defs>
      <path id="DejaVuSans-2b" d="M 2944 4013 
L 2944 2272 
L 4684 2272 
L 4684 1741 
L 2944 1741 
L 2944 0 
L 2419 0 
L 2419 1741 
L 678 1741 
L 678 2272 
L 2419 2272 
L 2419 4013 
L 2944 4013 
z
" transform="scale(0.015625)"/>
     </defs>
     <use xlink:href="#DejaVuSans-2b"/>
    </g>
   </g>
   <g id="text_7">
    <!-- − -->
    <g transform="translate(142.554219 218.943125) scale(0.14 -0.14)">
     <defs>
      <path id="DejaVuSans-2212" d="M 678 2272 
L 4684 2272 
L 4684 1741 
L 678 1741 
L 678 2272 
z
" transform="scale(0.015625)"/>
     </defs>
     <use xlink:href="#DejaVuSans-2212"/>
    </g>
   </g>
  </g>
 </g>
 <defs>
  <clipPath id="pfb084dfe55">
   <rect x="2.614" y="0" width="278.286" height="376.36"/>
  </clipPath>
 </defs>
</svg>