<?xml version="1.0" encoding="utf-8" standalone="no"?>
<!DOCTYPE svg PUBLIC "-//W3C//DTD SVG 1.1//EN"
  "http://www.w3.org/Graphics/SVG/1.1/DTD/svg11.dtd">
<svg xmlns:xlink="http://www.w3.org/1999/xlink" width="406.332pt" height="376.36pt" viewBox="0 0 406.332 376.36" xmlns="http://www.w3.org/2000/svg" version="1.1">
 <metadata>
  <rdf:RDF xmlns:dc="http://purl.org/dc/elements/1.1/" xmlns:cc="http://creativecommons.org/ns#" xmlns:rdf="http://www.w3.org/1999/02/22-rdf-syntax-ns#">
   <cc:Work>
    <dc:type rdf:resource="http://purl.org/dc/dcmitype/StillImage"/>
    <dc:date>2026-07-21T12:11:58.787487</dc:date>
    <dc:format>image/svg+xml</dc:format>
    <dc:creator>
     <cc:Agent>
      <dc:title>Matplotlib v3.10.9, https://matplotlib.org/</dc:title>
     </cc:Agent>
    </dc:creator>
   </cc:Work>
  </rdf:RDF>
 </metadata>
 <defs>
  <style type="text/css">*{stroke-linejoin: round; stroke-linecap: butt}</style>
 </defs>
 <g id="figure_1">
  <g id="patch_1">
   <path d="M 0 376.36 
L 406.332 376.36 
L 406.332 0 
L 0 0 
z
" style="fill: #ffffff"/>
  </g>
  <g id="axes_1">
   <g id="patch_2">
    <path d="M 144.972 209.68 
C 149.745656 209.68 154.324438 207.783406 157.699922 204.407922 
C 161.075406 201.032438 162.972 196.453656 162.972 191.68 
C 162.972 186.906344 161.075406 182.327562 157.699922 178.952078 
C 154.324438 175.576594 149.745656 173.68 144.972 173.68 
C 140.198344 173.68 135.619562 175.576594 132.244078 178.952078 
C 128.868594 182.327562 126.972 186.906344 126.972 191.68 
C 126.972 196.453656 128.868594 201.032438 132.244078 204.407922 
C 135.619562 207.783406 140.198344 209.68 144.972 209.68 
L 144.972 209.68 
z
" clip-path="url(#pb5b820073b)" style="fill: none; stroke: #000000; stroke-width: 2; stroke-linejoin: miter"/>
   </g>
   <g id="patch_3">
    <path d="M 252.972 92.68 
C 254.165016 92.68 255.31039 92.205571 256.153981 91.361981 
C 256.997571 90.51839 257.472 89.373016 257.472 88.18 
C 257.472 86.986984 256.997571 85.84161 256.153981 84.998019 
C 255.31039 84.154429 254.165016 83.68 252.972 83.68 
" clip-path="url(#pb5b820073b)" style="fill: none; stroke: #000000; stroke-width: 2; stroke-linejoin: miter"/>
   </g>
   <g id="patch_4">
    <path d="M 252.972 101.68 
C 254.165016 101.68 255.31039 101.205571 256.153981 100.361981 
C 256.997571 99.51839 257.472 98.373016 257.472 97.18 
C 257.472 95.986984 256.997571 94.84161 256.153981 93.998019 
C 255.31039 93.154429 254.165016 92.68 252.972 92.68 
" clip-path="url(#pb5b820073b)" style="fill: none; stroke: #000000; stroke-width: 2; stroke-linejoin: miter"/>
   </g>
   <g id="patch_5">
    <path d="M 252.972 110.68 
C 254.165016 110.68 255.31039 110.205571 256.153981 109.361981 
C 256.997571 108.51839 257.472 107.373016 257.472 106.18 
C 257.472 104.986984 256.997571 103.84161 256.153981 102.998019 
C 255.31039 102.154429 254.165016 101.68 252.972 101.68 
" clip-path="url(#pb5b820073b)" style="fill: none; stroke: #000000; stroke-width: 2; stroke-linejoin: miter"/>
   </g>
   <g id="patch_6">
    <path d="M 252.972 119.68 
C 254.165016 119.68 255.31039 119.205571 256.153981 118.361981 
C 256.997571 117.51839 257.472 116.373016 257.472 115.18 
C 257.472 113.986984 256.997571 112.84161 256.153981 111.998019 
C 255.31039 111.154429 254.165016 110.68 252.972 110.68 
" clip-path="url(#pb5b820073b)" style="fill: none; stroke: #000000; stroke-width: 2; stroke-linejoin: miter"/>
   </g>
   <g id="line2d_1">
    <path d="M 144.972 299.68 
L 144.972 263.68 
L 144.972 227.68 
" clip-path="url(#pb5b820073b)" style="fill: none; stroke: #000000; stroke-width: 2; stroke-linecap: round"/>
   </g>
   <g id="line2d_2">
    <path d="M 144.972 227.68 
L 144.972 209.68 
L 144.972 209.68 
M 144.972 173.68 
L 144.972 173.68 
L 144.972 155.68 
" clip-path="url(#pb5b820073b)" style="fill: none; stroke: #000000; stroke-width: 2; stroke-linecap: round"/>
   </g>
   <g id="line2d_3">
    <path d="M 153.972 191.68 
L 153.222 189.816503 
L 152.472 188.08 
L 151.722 186.588831 
L 150.972 185.444617 
L 150.222 184.725334 
L 149.472 184.48 
L 148.722 184.725334 
L 147.972 185.444617 
L 147.222 186.588831 
L 146.472 188.08 
L 145.722 189.816503 
L 144.972 191.68 
L 144.222 193.543497 
L 143.472 195.28 
L 142.722 196.771169 
L 141.972 197.915383 
L 141.222 198.634666 
L 140.472 198.88 
L 139.722 198.634666 
L 138.972 197.915383 
L 138.222 196.771169 
L 137.472 195.28 
L 136.722 193.543497 
L 135.972 191.68 
" clip-path="url(#pb5b820073b)" style="fill: none; stroke: #000000; stroke-width: 2; stroke-linecap: round"/>
   </g>
   <g id="line2d_4">
    <path d="M 144.972 155.68 
L 144.972 101.68 
L 144.972 47.68 
" clip-path="url(#pb5b820073b)" style="fill: none; stroke: #000000; stroke-width: 2; stroke-linecap: round"/>
   </g>
   <g id="line2d_5">
    <path d="M 144.972 47.68 
L 198.972 47.68 
L 252.972 47.68 
" clip-path="url(#pb5b820073b)" style="fill: none; stroke: #000000; stroke-width: 2; stroke-linecap: round"/>
   </g>
   <g id="line2d_6">
    <path d="M 252.972 47.68 
L 252.972 83.68 
M 252.972 119.68 
L 252.972 155.68 
" clip-path="url(#pb5b820073b)" style="fill: none; stroke: #000000; stroke-width: 2; stroke-linecap: round"/>
   </g>
   <g id="line2d_7">
    <path d="M 252.972 155.68 
L 252.972 191.68 
L 261.972 194.68 
L 243.972 200.68 
L 261.972 206.68 
L 243.972 212.68 
L 261.972 218.68 
L 243.972 224.68 
L 252.972 227.68 
L 252.972 263.68 
" clip-path="url(#pb5b820073b)" style="fill: none; stroke: #000000; stroke-width: 2; stroke-linecap: round"/>
   </g>
   <g id="line2d_8">
    <path d="M 252.972 263.68 
L 252.972 314.44 
M 261.972 314.44 
L 243.972 314.44 
M 261.972 320.92 
L 243.972 320.92 
M 252.972 320.92 
L 252.972 371.68 
" clip-path="url(#pb5b820073b)" style="fill: none; stroke: #000000; stroke-width: 2; stroke-linecap: round"/>
   </g>
   <g id="line2d_9">
    <path d="M 252.972 371.68 
L 198.972 371.68 
L 144.972 371.68 
" clip-path="url(#pb5b820073b)" style="fill: none; stroke: #000000; stroke-width: 2; stroke-linecap: round"/>
   </g>
   <g id="line2d_10">
    <path d="M 144.972 371.68 
L 144.972 317.68 
L 144.972 263.68 
" clip-path="url(#pb5b820073b)" style="fill: none; stroke: #000000; stroke-width: 2; stroke-linecap: round"/>
   </g>
   <g id="line2d_11">
    <path d="M 198.972 31.48 
L 213.372 31.48 
L 218.772 31.48 
" clip-path="url(#pb5b820073b)" style="fill: none; stroke: #000000; stroke-width: 2; stroke-linecap: round"/>
   </g>
   <g id="patch_7">
    <path d="M 218.772 28.78 
L 227.772 31.48 
L 218.772 34.18 
z
" clip-path="url(#pb5b820073b)"/>
   </g>
   <g id="text_1">
    <!-- $j\omega L = jX_L$ -->
    <g transform="translate(261.071978 105.53) scale(0.14 -0.14)">
     <defs>
      <path id="DejaVuSans-Oblique-6a" d="M 928 3500 
L 1503 3500 
L 813 -63 
L 809 -78 
Q 694 -675 544 -897 
Q 403 -1106 132 -1218 
Q -138 -1331 -506 -1331 
L -722 -1331 
L -628 -844 
L -481 -844 
Q -144 -844 -1 -703 
Q 141 -563 238 -63 
L 928 3500 
z
M 1197 4863 
L 1772 4863 
L 1631 4134 
L 1056 4134 
L 1197 4863 
z
" transform="scale(0.015625)"/>
      <path id="DejaVuSans-Oblique-3c9" d="M 1369 -91 
Q 72 -91 434 1766 
Q 575 2500 1256 3500 
L 1875 3500 
Q 1231 2500 1088 1750 
Q 819 397 1519 397 
Q 2166 397 2478 2078 
L 3009 2078 
Q 2669 388 3316 397 
Q 4013 403 4275 1750 
Q 4419 2500 4169 3500 
L 4788 3500 
Q 5075 2500 4934 1766 
Q 4578 -94 3278 -91 
Q 2428 -88 2503 844 
Q 2194 -91 1369 -91 
z
" transform="scale(0.015625)"/>
      <path id="DejaVuSans-Oblique-4c" d="M 1075 4666 
L 1709 4666 
L 909 525 
L 3181 525 
L 3078 0 
L 172 0 
L 1075 4666 
z
" transform="scale(0.015625)"/>
      <path id="DejaVuSans-3d" d="M 678 2906 
L 4684 2906 
L 4684 2381 
L 678 2381 
L 678 2906 
z
M 678 1631 
L 4684 1631 
L 4684 1100 
L 678 1100 
L 678 1631 
z
" transform="scale(0.015625)"/>
      <path id="DejaVuSans-Oblique-58" d="M 878 4666 
L 1516 4666 
L 2316 2981 
L 3763 4666 
L 4500 4666 
L 2578 2438 
L 3738 0 
L 3103 0 
L 2163 1966 
L 459 0 
L -275 0 
L 1906 2509 
L 878 4666 
z
" transform="scale(0.015625)"/>
     </defs>
     <use xlink:href="#DejaVuSans-Oblique-6a" transform="translate(0 0.015625)"/>
     <use xlink:href="#DejaVuSans-Oblique-3c9" transform="translate(27.783203 0.015625)"/>
     <use xlink:href="#DejaVuSans-Oblique-4c" transform="translate(111.523438 0.015625)"/>
     <use xlink:href="#DejaVuSans-3d" transform="translate(186.71875 0.015625)"/>
     <use xlink:href="#DejaVuSans-Oblique-6a" transform="translate(289.990234 0.015625)"/>
     <use xlink:href="#DejaVuSans-Oblique-58" transform="translate(317.773438 0.015625)"/>
     <use xlink:href="#DejaVuSans-Oblique-4c" transform="translate(386.279297 -16.390625) scale(0.7)"/>
    </g>
   </g>
   <g id="text_2">
    <!-- R -->
    <g transform="translate(230.644188 213.543125) scale(0.14 -0.14)">
     <defs>
      <path id="DejaVuSans-52" d="M 2841 2188 
Q 3044 2119 3236 1894 
Q 3428 1669 3622 1275 
L 4263 0 
L 3584 0 
L 2988 1197 
Q 2756 1666 2539 1819 
Q 2322 1972 1947 1972 
L 1259 1972 
L 1259 0 
L 628 0 
L 628 4666 
L 2053 4666 
Q 2853 4666 3247 4331 
Q 3641 3997 3641 3322 
Q 3641 2881 3436 2590 
Q 3231 2300 2841 2188 
z
M 1259 4147 
L 1259 2491 
L 2053 2491 
Q 2509 2491 2742 2702 
Q 2975 2913 2975 3322 
Q 2975 3731 2742 3939 
Q 2509 4147 2053 4147 
L 1259 4147 
z
" transform="scale(0.015625)"/>
     </defs>
     <use xlink:href="#DejaVuSans-52"/>
    </g>
   </g>
   <g id="text_3">
    <!-- $-j (\frac{1}{\omega C}) = jX_C$ -->
    <g transform="translate(265.572 321.46) scale(0.14 -0.14)">
     <defs>
      <path id="DejaVuSans-2212" d="M 678 2272 
L 4684 2272 
L 4684 1741 
L 678 1741 
L 678 2272 
z
" transform="scale(0.015625)"/>
      <path id="DejaVuSans-28" d="M 1984 4856 
Q 1566 4138 1362 3434 
Q 1159 2731 1159 2009 
Q 1159 1288 1364 580 
Q 1569 -128 1984 -844 
L 1484 -844 
Q 1016 -109 783 600 
Q 550 1309 550 2009 
Q 550 2706 781 3412 
Q 1013 4119 1484 4856 
L 1984 4856 
z
" transform="scale(0.015625)"/>
      <path id="DejaVuSans-31" d="M 794 531 
L 1825 531 
L 1825 4091 
L 703 3866 
L 703 4441 
L 1819 4666 
L 2450 4666 
L 2450 531 
L 3481 531 
L 3481 0 
L 794 0 
L 794 531 
z
" transform="scale(0.015625)"/>
      <path id="DejaVuSans-Oblique-43" d="M 4447 4306 
L 4319 3641 
Q 4019 3944 3683 4091 
Q 3347 4238 2956 4238 
Q 2422 4238 2017 3981 
Q 1613 3725 1319 3200 
Q 1131 2863 1032 2486 
Q 934 2109 934 1728 
Q 934 1091 1264 756 
Q 1594 422 2222 422 
Q 2656 422 3056 561 
Q 3456 700 3834 978 
L 3688 231 
Q 3316 72 2936 -9 
Q 2556 -91 2175 -91 
Q 1278 -91 773 396 
Q 269 884 269 1753 
Q 269 2309 461 2846 
Q 653 3384 1013 3828 
Q 1394 4300 1883 4525 
Q 2372 4750 3022 4750 
Q 3422 4750 3780 4639 
Q 4138 4528 4447 4306 
z
" transform="scale(0.015625)"/>
      <path id="DejaVuSans-29" d="M 513 4856 
L 1013 4856 
Q 1481 4119 1714 3412 
Q 1947 2706 1947 2009 
Q 1947 1309 1714 600 
Q 1481 -109 1013 -844 
L 513 -844 
Q 928 -128 1133 580 
Q 1338 1288 1338 2009 
Q 1338 2731 1133 3434 
Q 928 4138 513 4856 
z
" transform="scale(0.015625)"/>
     </defs>
     <use xlink:href="#DejaVuSans-2212" transform="translate(0 0.16875)"/>
     <use xlink:href="#DejaVuSans-Oblique-6a" transform="translate(83.789062 0.16875)"/>
     <use xlink:href="#DejaVuSans-28" transform="translate(111.572266 0.16875)"/>
     <use xlink:href="#DejaVuSans-31" transform="translate(181.585938 43.965625) scale(0.7)"/>
     <use xlink:href="#DejaVuSans-Oblique-3c9" transform="translate(150.585938 -39.2375) scale(0.7)"/>
     <use xlink:href="#DejaVuSans-Oblique-43" transform="translate(209.204102 -39.2375) scale(0.7)"/>
     <use xlink:href="#DejaVuSans-29" transform="translate(270.581055 0.16875)"/>
     <use xlink:href="#DejaVuSans-3d" transform="translate(329.077148 0.16875)"/>
     <use xlink:href="#DejaVuSans-Oblique-6a" transform="translate(432.348633 0.16875)"/>
     <use xlink:href="#DejaVuSans-Oblique-58" transform="translate(460.131836 0.16875)"/>
     <use xlink:href="#DejaVuSans-Oblique-43" transform="translate(528.637695 -16.2375) scale(0.7)"/>
     <path d="M 150.585938 18.965625 
L 150.585938 25.215625 
L 258.081055 25.215625 
L 258.081055 18.965625 
L 150.585938 18.965625 
z
"/>
    </g>
   </g>
   <g id="text_4">
    <!-- $\bar{I}$ -->
    <g transform="translate(214.872 15.543125) scale(0.14 -0.14)">
     <defs>
      <path id="DejaVuSans-304" d="M -2518 4769 
L -650 4769 
L -650 4306 
L -2518 4306 
L -2518 4769 
z
" transform="scale(0.015625)"/>
      <path id="DejaVuSans-Oblique-49" d="M 1081 4666 
L 1716 4666 
L 806 0 
L 172 0 
L 1081 4666 
z
" transform="scale(0.015625)"/>
     </defs>
     <use xlink:href="#DejaVuSans-304" transform="translate(42.716797 18.484375)"/>
     <use xlink:href="#DejaVuSans-Oblique-49" transform="translate(0 0.359375)"/>
    </g>
   </g>
   <g id="text_5">
    <!-- $\bar{V}= V\angle0$ -->
    <g transform="translate(18.862 191.943125) scale(0.14 -0.14)">
     <defs>
      <path id="DejaVuSans-Oblique-56" d="M 1319 0 
L 500 4666 
L 1119 4666 
L 1797 653 
L 4063 4666 
L 4750 4666 
L 2053 0 
L 1319 0 
z
" transform="scale(0.015625)"/>
      <path id="DejaVuSans-2220" d="M 5028 631 
L 5028 0 
L 547 0 
L 3525 4666 
L 4281 4666 
L 1716 631 
L 5028 631 
z
" transform="scale(0.015625)"/>
      <path id="DejaVuSans-30" d="M 2034 4250 
Q 1547 4250 1301 3770 
Q 1056 3291 1056 2328 
Q 1056 1369 1301 889 
Q 1547 409 2034 409 
Q 2525 409 2770 889 
Q 3016 1369 3016 2328 
Q 3016 3291 2770 3770 
Q 2525 4250 2034 4250 
z
M 2034 4750 
Q 2819 4750 3233 4129 
Q 3647 3509 3647 2328 
Q 3647 1150 3233 529 
Q 2819 -91 2034 -91 
Q 1250 -91 836 529 
Q 422 1150 422 2328 
Q 422 3509 836 4129 
Q 1250 4750 2034 4750 
z
" transform="scale(0.015625)"/>
     </defs>
     <use xlink:href="#DejaVuSans-304" transform="translate(67.445801 18.484375)"/>
     <use xlink:href="#DejaVuSans-Oblique-56" transform="translate(0 0.359375)"/>
     <use xlink:href="#DejaVuSans-3d" transform="translate(87.890625 0.359375)"/>
     <use xlink:href="#DejaVuSans-Oblique-56" transform="translate(191.162109 0.359375)"/>
     <use xlink:href="#DejaVuSans-2220" transform="translate(259.570312 0.359375)"/>
     <use xlink:href="#DejaVuSans-30" transform="translate(349.21875 0.359375)"/>
    </g>
   </g>
   <g id="text_6">
    <!-- + -->
    <g transform="translate(128.306219 164.943125) scale(0.14 -0.14)">
     <defs>
      <path id="DejaVuSans-2b" d="M 2944 4013 
L 2944 2272 
L 4684 2272 
L 4684 1741 
L 2944 1741 
L 2944 0 
L 2419 0 
L 2419 1741 
L 678 1741 
L 678 2272 
L 2419 2272 
L 2419 4013 
L 2944 4013 
z
" transform="scale(0.015625)"/>
     </defs>
     <use xlink:href="#DejaVuSans-2b"/>
    </g>
   </g>
   <g id="text_7">
    <!-- − -->
    <g transform="translate(128.306219 218.943125) scale(0.14 -0.14)">
     <use xlink:href="#DejaVuSans-2212"/>
    </g>
   </g>
  </g>
 </g>
 <defs>
  <clipPath id="pb5b820073b">
   <rect x="0" y="0" width="406.332" height="376.36"/>
  </clipPath>
 </defs>
</svg>